<svg id="Group" xmlns="http://www.w3.org/2000/svg" width="23" height="14.728" viewBox="0 0 23 14.728">
  <path id="Shape" d="M2.875,14.728a2.98,2.98,0,0,1-1.58-.452L8.58,8.693l1.662,1.483a1.919,1.919,0,0,0,2.516,0L14.42,8.693l7.286,5.583a2.983,2.983,0,0,1-1.581.452ZM22.5,13.483l-7.232-5.54,7.358-6.563A2.624,2.624,0,0,1,23,2.727V12a2.626,2.626,0,0,1-.476,1.5ZM0,12V2.727A2.623,2.623,0,0,1,.377,1.381L7.736,7.943.5,13.483.476,13.5A2.624,2.624,0,0,1,0,12ZM11.033,9.383,1.132.563A2.968,2.968,0,0,1,2.875,0h17.25a2.969,2.969,0,0,1,1.743.563l-9.9,8.821a.809.809,0,0,1-.934,0Z" fill="#fff"/>
</svg>
