<svg xmlns="http://www.w3.org/2000/svg" width="32" height="32" viewBox="0 0 32 32">
  <g id="Icon_2" data-name="Icon  2" transform="translate(-0.022 -0.022)">
    <circle id="Oval" cx="16" cy="16" r="16" transform="translate(0.022 0.022)" fill="#1565d8" opacity="0.15"/>
    <path id="Icon" d="M5.473,11.764.22,6.542a.838.838,0,0,1,0-1.132L1.384,4.278a.7.7,0,0,1,.55-.252.8.8,0,0,1,.582.252L6.039,7.8,13.588.252A.8.8,0,0,1,14.17,0a.7.7,0,0,1,.55.252l1.164,1.132a.766.766,0,0,1,.22.566.766.766,0,0,1-.22.566L6.605,11.764a.763.763,0,0,1-1.132,0Z" transform="translate(7.97 10.014)" fill="#1565d8"/>
  </g>
</svg>
