<svg id="phone_in_talk_black_24dp" xmlns="http://www.w3.org/2000/svg" width="24" height="24" viewBox="0 0 24 24">
  <path id="Caminho_10776" data-name="Caminho 10776" d="M0,0H24V24H0Z" fill="none"/>
  <path id="Caminho_10777" data-name="Caminho 10777" d="M15,12h2a5,5,0,0,0-5-5V9A3,3,0,0,1,15,12Zm4,0h2a9,9,0,0,0-9-9V5A7,7,0,0,1,19,12Zm1,3.5a11.36,11.36,0,0,1-3.57-.57,1.115,1.115,0,0,0-.31-.05,1.024,1.024,0,0,0-.71.29l-2.2,2.2a15.045,15.045,0,0,1-6.59-6.59l2.2-2.21a.96.96,0,0,0,.25-1A11.36,11.36,0,0,1,8.5,4a1,1,0,0,0-1-1H4A1,1,0,0,0,3,4,17,17,0,0,0,20,21a1,1,0,0,0,1-1V16.5A1,1,0,0,0,20,15.5ZM5.03,5h1.5a13.786,13.786,0,0,0,.45,2.58L5.78,8.79A15.348,15.348,0,0,1,5.03,5ZM19,18.97a14.9,14.9,0,0,1-3.8-.76l1.2-1.2a12.753,12.753,0,0,0,2.6.45Z" fill="#183b56"/>
</svg>
