<svg xmlns="http://www.w3.org/2000/svg" xmlns:xlink="http://www.w3.org/1999/xlink" width="57" height="57" viewBox="0 0 57 57">
  <defs>
    <clipPath id="clip-path">
      <rect id="Ret칙ngulo_101" data-name="Ret칙ngulo 101" width="32" height="32" transform="translate(1031 6276)" fill="#fff" stroke="#707070" stroke-width="1"/>
    </clipPath>
    <linearGradient id="linear-gradient" x1="0.5" y1="0.008" x2="0.5" y2="0.998" gradientUnits="objectBoundingBox">
      <stop offset="0" stop-color="#e09b3d"/>
      <stop offset="0.3" stop-color="#c74c4d"/>
      <stop offset="0.6" stop-color="#c21975"/>
      <stop offset="1" stop-color="#7024c4"/>
    </linearGradient>
    <linearGradient id="linear-gradient-2" y1="-0.451" y2="1.462" xlink:href="#linear-gradient"/>
    <linearGradient id="linear-gradient-3" y1="-1.396" y2="6.586" xlink:href="#linear-gradient"/>
  </defs>
  <g id="telegram" transform="translate(0.5 0.5)">
    <circle id="Oval_8_Copy_2" data-name="Oval 8 Copy 2" cx="28" cy="28" r="28" fill="none" stroke="#005cc7" stroke-miterlimit="10" stroke-width="1" opacity="0.2"/>
    <g id="Grupo_de_m치scara_5" data-name="Grupo de m치scara 5" transform="translate(-1019 -6264)" clip-path="url(#clip-path)">
      <g id="_029-instagram" data-name="029-instagram" transform="translate(1031 6276)">
        <path id="Caminho_154" data-name="Caminho 154" d="M22.467,0H9.533A9.544,9.544,0,0,0,0,9.533V22.467A9.544,9.544,0,0,0,9.533,32H22.467A9.544,9.544,0,0,0,32,22.467V9.533A9.544,9.544,0,0,0,22.467,0Zm6.314,22.467a6.314,6.314,0,0,1-6.314,6.314H9.533a6.314,6.314,0,0,1-6.314-6.314V9.533A6.314,6.314,0,0,1,9.533,3.219H22.467a6.314,6.314,0,0,1,6.314,6.314V22.467Z" fill="url(#linear-gradient)"/>
        <path id="Caminho_155" data-name="Caminho 155" d="M16,7.724A8.276,8.276,0,1,0,24.276,16,8.286,8.286,0,0,0,16,7.724Zm0,13.333A5.057,5.057,0,1,1,21.057,16,5.057,5.057,0,0,1,16,21.057Z" fill="url(#linear-gradient-2)"/>
        <circle id="Elipse_10" data-name="Elipse 10" cx="1.983" cy="1.983" r="1.983" transform="translate(22.309 5.803)" fill="url(#linear-gradient-3)"/>
      </g>
    </g>
  </g>
</svg>
