<svg xmlns="http://www.w3.org/2000/svg" width="14.545" height="14" viewBox="0 0 14.545 14">
  <g id="Grupo_9" data-name="Grupo 9" transform="translate(-5.724 -5)">
    <g id="Grupo_8" data-name="Grupo 8">
      <path id="Caminho_1" data-name="Caminho 1" d="M20.08,11.42,16.04,5.77A1.816,1.816,0,0,0,14.56,5h0a1.829,1.829,0,0,0-1.49,2.89L16,12l-2.93,4.11A1.826,1.826,0,0,0,14.56,19h0a1.834,1.834,0,0,0,1.49-.77l4.04-5.65A1.007,1.007,0,0,0,20.08,11.42Z" fill="#fff"/>
      <path id="Caminho_2" data-name="Caminho 2" d="M13.08,11.42,9.05,5.77A1.848,1.848,0,0,0,7.56,5h0A1.826,1.826,0,0,0,6.07,7.89L9,12,6.07,16.11A1.826,1.826,0,0,0,7.56,19h0a1.834,1.834,0,0,0,1.49-.77l4.04-5.65A1.007,1.007,0,0,0,13.08,11.42Z" fill="#fff"/>
    </g>
  </g>
</svg>
