<svg xmlns="http://www.w3.org/2000/svg" width="57" height="57" viewBox="0 0 57 57">
  <g id="telegram" transform="translate(0.5 0.5)">
    <path id="XMLID_497_" d="M15.743,16.822,11.11,13.553a.783.783,0,0,0-.934.025L7.607,15.613a.548.548,0,0,1-.861-.252L4.962,9.786.354,8.114a.523.523,0,0,1-.005-.987L19.261.036a.538.538,0,0,1,.727.6L16.594,16.5a.54.54,0,0,1-.534.421A.549.549,0,0,1,15.743,16.822Z" transform="translate(17 21)" fill="#005cc7"/>
    <circle id="Oval_8_Copy_2" data-name="Oval 8 Copy 2" cx="28" cy="28" r="28" fill="none" stroke="#005cc7" stroke-miterlimit="10" stroke-width="1" opacity="0.2"/>
  </g>
</svg>
